:FULLY-SPECIFIED
:FORCE-ALL-JOINTS-BE-3DOF
:DEGREES
815
root 1.96563 16.6975 22.5551 4.84774 1.93161 353.555
lfemur -39.3705 0.203899 -0.20611
ltibia 22.5853 0 0
lfoot -9.28461 7.15728 0
ltoes 15.0592 0 0
rfemur 0.732697 4.71036 21.8748
rtibia 22.9496 0 0
rfoot -22.2401 -10.5193 0
rtoes -22.2054 0 0
lowerback 0.944333 5.93877 5.62315
upperback -0.0906568 7.9757 -0.338888
thorax 0.191768 3.99154 -3.4605
lowerneck -5.89973 -1.72443 2.8572
upperneck -0.825484 -2.49218 1.38994
head 0.701933 -1.22816 -0.10287
lclavicle -1.08719e-13 9.93924e-15 0
lhumerus -53.1944 -7.23392 91.6789
lradius 54.145 0 0
lwrist 19.8784 0 0
lhand -10.8824 5.01467 0
lfingers 7.12502 0 0
lthumb 15.1333 34.4345 0
rclavicle -1.08719e-13 9.93924e-15 0
rhumerus -30.9296 45.466 -111.427
rradius 67.7007 0 0
rwrist -0.937498 0 0
rhand -11.1585 -25.2638 0
rfingers 7.12502 0 0
rthumb 14.867 -774.698 0
816
root 1.99839 16.682 22.7132 4.89235 0.587182 353.272
lfemur -38.7439 -0.0590933 0.81485
ltibia 20.692 0 0
lfoot -8.85347 8.80949 0
ltoes 15.3622 0 0
rfemur 1.66929 5.14975 22.0326
rtibia 22.0053 0 0
rfoot -22.0607 -10.7648 0
rtoes -22.718 0 0
lowerback 0.746651 6.11575 5.7552
upperback -0.124965 8.20248 -0.258323
thorax 0.295489 4.10679 -3.42524
lowerneck -5.84021 -1.65657 2.95151
upperneck -0.681727 -2.40949 1.37322
head 0.736058 -1.18562 -0.122137
lclavicle -1.20107e-13 4.57205e-15 0
lhumerus -53.1272 -7.08633 91.5132
lradius 53.5863 0 0
lwrist 19.6355 0 0
lhand -10.3076 5.17688 0
lfingers 7.12502 0 0
lthumb 15.6872 34.5567 0
rclavicle -1.20107e-13 4.57205e-15 0
rhumerus -30.6476 45.4541 -110.952
rradius 67.5392 0 0
rwrist -1.25793 0 0
rhand -10.3736 -24.7941 0
rfingers 7.12502 0 0
rthumb 15.6234 -774.175 0
817
root 2.03115 16.6664 22.8712 4.93696 -0.75725 352.989
lfemur -38.1174 -0.322086 1.83581
ltibia 18.7988 0 0
lfoot -8.42232 10.4617 0
ltoes 15.6653 0 0
rfemur 2.60588 5.58915 22.1904
rtibia 21.0611 0 0
rfoot -21.8814 -11.0103 0
rtoes -23.2307 0 0
lowerback 0.548969 6.29273 5.88725
upperback -0.159273 8.42926 -0.177758
thorax 0.39921 4.22205 -3.38998
lowerneck -5.78068 -1.58872 3.04583
upperneck -0.537971 -2.32681 1.3565
head 0.770183 -1.14307 -0.141404
lclavicle -1.31496e-13 -7.95139e-16 0
lhumerus -53.0599 -6.93873 91.3475
lradius 53.0275 0 0
lwrist 19.3926 0 0
lhand -9.73271 5.33909 0
lfingers 7.12502 0 0
lthumb 16.241 34.6788 0
rclavicle -1.31496e-13 -7.95139e-16 0
rhumerus -30.3656 45.4422 -110.478
rradius 67.3777 0 0
rwrist -1.57836 0 0
rhand -9.5887 -24.3245 0
rfingers 7.12502 0 0
rthumb 16.3797 -773.653 0
818
root 2.07251 16.6336 23.0477 4.8056 -1.86366 352.839
lfemur -37.4693 -0.148252 2.11622
ltibia 18.6985 0 0
lfoot -8.19343 11.4849 0
ltoes 16.698 0 0
rfemur 3.60667 5.67715 22.0854
rtibia 20.5361 0 0
rfoot -21.7239 -11.3544 0
rtoes -24.3872 0 0
lowerback 0.357947 6.46192 5.89025
upperback -0.222458 8.64366 -0.11982
thorax 0.452099 4.32894 -3.30438
lowerneck -5.70331 -1.53556 3.14871
upperneck -0.247269 -2.26591 1.33218
head 0.848234 -1.10835 -0.16601
lclavicle -9.69282e-14 -3.97569e-16 0
lhumerus -53.2374 -6.63148 91.0408
lradius 52.7872 0 0
lwrist 19.0128 0 0
lhand -8.91373 5.38245 0
lfingers 7.12502 0 0
lthumb 17.0288 34.6467 0
rclavicle -9.69282e-14 -3.97569e-16 0
rhumerus -30.1191 45.2975 -109.717
rradius 67.247 0 0
rwrist -1.82082 0 0
rhand -8.90217 -23.7482 0
rfingers 7.12502 0 0
rthumb 17.0401 -773.014 0
819
root 2.11387 16.6009 23.2242 4.67424 -2.97007 352.689
lfemur -36.8211 0.0255817 2.39663
ltibia 18.5982 0 0
lfoot -7.96453 12.508 0
ltoes 17.7308 0 0
rfemur 4.60746 5.76515 21.9805
rtibia 20.0111 0 0
rfoot -21.5664 -11.6986 0
rtoes -25.5436 0 0
lowerback 0.166924 6.63112 5.89325
upperback -0.285644 8.85805 -0.0618827
thorax 0.504988 4.43583 -3.21878
lowerneck -5.62594 -1.48239 3.25159
upperneck 0.0434327 -2.20501 1.30786
head 0.926285 -1.07363 -0.190616
lclavicle -6.23604e-14 6.66667e-22 0
lhumerus -53.415 -6.32423 90.7341
lradius 52.5469 0 0
lwrist 18.6329 0 0
lhand -8.09476 5.42581 0
lfingers 7.12502 0 0
lthumb 17.8165 34.6145 0
rclavicle -6.23604e-14 6.66667e-22 0
rhumerus -29.8727 45.1529 -108.955
rradius 67.1163 0 0
rwrist -2.06327 0 0
rhand -8.21564 -23.1718 0
rfingers 7.12502 0 0
rthumb 17.7005 -772.376 0
820
root 2.15523 16.5681 23.4008 4.54288 -4.07648 352.538
lfemur -36.173 0.199416 2.67704
ltibia 18.4978 0 0
lfoot -7.73564 13.5312 0
ltoes 18.7635 0 0
rfemur 5.60825 5.85314 21.8755
rtibia 19.4861 0 0
rfoot -21.4089 -12.0427 0
rtoes -26.7001 0 0
lowerback -0.0240985 6.80031 5.89626
upperback -0.348829 9.07245 -0.003945
thorax 0.557876 4.54272 -3.13318
lowerneck -5.54856 -1.42923 3.35447
upperneck 0.334135 -2.14411 1.28354
head 1.00434 -1.03891 -0.215222
lclavicle -2.77926e-14 3.97571e-16 0
lhumerus -53.5926 -6.01699 90.4273
lradius 52.3066 0 0
lwrist 18.2531 0 0
lhand -7.27578 5.46917 0
lfingers 7.12502 0 0
lthumb 18.6043 34.5824 0
rclavicle -2.77926e-14 3.97571e-16 0
rhumerus -29.6262 45.0082 -108.194
rradius 66.9856 0 0
rwrist -2.30572 0 0
rhand -7.5291 -22.5954 0
rfingers 7.12502 0 0
rthumb 18.3609 -771.737 0
821
root 2.19659 16.5354 23.5773 4.41151 -5.1829 352.388
lfemur -35.5248 0.373249 2.95746
ltibia 18.3975 0 0
lfoot -7.50675 14.5544 0
ltoes 19.7963 0 0
rfemur 6.60905 5.94114 21.7705
rtibia 18.9611 0 0
rfoot -21.2515 -12.3868 0
rtoes -27.8566 0 0
lowerback -0.215121 6.96951 5.89926
upperback -0.412014 9.28685 0.0539927
thorax 0.610765 4.6496 -3.04758
lowerneck -5.47119 -1.37607 3.45735
upperneck 0.624836 -2.08321 1.25921
head 1.08239 -1.00419 -0.239827
lclavicle 6.77527e-15 7.9514e-16 0
lhumerus -53.7701 -5.70974 90.1206
lradius 52.0663 0 0
lwrist 17.8732 0 0
lhand -6.4568 5.51254 0
lfingers 7.12502 0 0
lthumb 19.392 34.5502 0
rclavicle 6.77527e-15 7.9514e-16 0
rhumerus -29.3797 44.8635 -107.433
rradius 66.855 0 0
rwrist -2.54818 0 0
rhand -6.84257 -22.0191 0
rfingers 7.12502 0 0
rthumb 19.0214 -771.098 0
